<svg width="127" height="120" viewBox="0 0 127 120" fill="none" xmlns="http://www.w3.org/2000/svg">
<path d="M13.4225 41.616L13.926 40.4595L21.7521 40.6318L21.7929 40.538L16.3346 34.927L16.8381 33.7705L24.84 37.254L24.4453 38.1605L18.3658 35.5138L18.3318 35.5919L23.3227 40.7392L22.9417 41.6144L15.7735 41.4683L15.7395 41.5465L21.819 44.1932L21.4244 45.0996L13.4225 41.616Z" fill="white"/>
<path d="M30.9961 32.729C30.8834 32.8569 30.7722 32.9614 30.6625 33.0427C30.555 33.126 30.4747 33.1783 30.4217 33.1997L29.9263 32.4216C30.1348 32.2797 30.2947 32.1328 30.4059 31.981C30.5172 31.8291 30.5643 31.649 30.5473 31.4408C30.5342 31.2323 30.4435 30.9722 30.2751 30.6607L30.0157 30.1818L23.4806 27.6437L24.2024 26.8257L29.3089 28.9217L29.354 28.8706L26.6383 24.0649L27.36 23.2469L31.1457 30.2923C31.3165 30.6097 31.4239 30.9109 31.4679 31.196C31.514 31.483 31.4967 31.7538 31.416 32.0084C31.3372 32.2609 31.1973 32.5011 30.9961 32.729Z" fill="white"/>
<path d="M45.3374 21.2982L42.0984 12.9012L43.0049 12.5515L43.3791 13.5217L43.4904 13.4787C43.5185 13.3461 43.5617 13.1741 43.6203 12.9628C43.6804 12.7477 43.8008 12.5308 43.9813 12.312C44.1634 12.0895 44.4533 11.9015 44.8509 11.7482C45.3651 11.5498 45.8679 11.5036 46.3594 11.6094C46.8508 11.7151 47.2975 11.9615 47.6995 12.3485C48.1015 12.7354 48.4262 13.2496 48.6736 13.891C48.9231 14.5378 49.0293 15.1408 48.9923 15.7001C48.9543 16.2567 48.7906 16.7401 48.5011 17.1501C48.2107 17.5575 47.811 17.8594 47.3021 18.0557C46.9098 18.207 46.5707 18.2632 46.2847 18.2243C45.9976 18.1828 45.7583 18.1031 45.5667 17.9852C45.374 17.8646 45.2218 17.7619 45.1099 17.6772L45.0304 17.7079L46.2757 20.9363L45.3374 21.2982ZM44.1986 15.5989C44.3765 16.0601 44.601 16.4408 44.8722 16.7412C45.1423 17.039 45.4456 17.2371 45.7821 17.3357C46.1175 17.4317 46.4734 17.4071 46.8497 17.2619C47.242 17.1106 47.5295 16.8809 47.7122 16.573C47.8964 16.2613 47.9869 15.9037 47.9834 15.5001C47.9816 15.0927 47.8968 14.6717 47.7292 14.237C47.5635 13.8077 47.348 13.4462 47.0826 13.1528C46.8188 12.8556 46.5155 12.6575 46.1727 12.5583C45.8316 12.4554 45.4622 12.4806 45.0647 12.634C44.683 12.7812 44.3996 13.0017 44.2144 13.2954C44.0283 13.5864 43.9354 13.9298 43.9358 14.3255C43.9352 14.7185 44.0228 15.143 44.1986 15.5989Z" fill="white"/>
<path d="M56.5249 15.4425L55.7962 8.93771L56.7617 8.82954L56.8718 9.81203L56.9396 9.80444C57.0221 9.46931 57.2074 9.18412 57.4955 8.94888C57.7836 8.71364 58.1225 8.5742 58.5121 8.53055C58.5855 8.52233 58.6774 8.51346 58.7878 8.50395C58.8982 8.49444 58.982 8.48935 59.0391 8.48867L59.1529 9.50504C59.1181 9.50036 59.0391 9.49636 58.9158 9.49302C58.795 9.48654 58.6682 9.49073 58.5355 9.50559C58.2193 9.54102 57.9444 9.63899 57.7109 9.79951C57.4798 9.9569 57.3052 10.1594 57.1872 10.407C57.0716 10.6515 57.0303 10.9206 57.0632 11.2142L57.5243 15.3305L56.5249 15.4425Z" fill="white"/>
<path d="M68.7419 15.5263C68.1572 15.4409 67.6645 15.2268 67.2638 14.884C66.866 14.5417 66.5799 14.1023 66.4056 13.5658C66.2341 13.0297 66.1972 12.4271 66.2949 11.7581C66.3935 11.0834 66.6017 10.5123 66.9198 10.0449C67.2407 9.57783 67.6407 9.23717 68.1199 9.02292C68.6018 8.80908 69.1352 8.74486 69.7199 8.83026C70.3046 8.91565 70.7959 9.12952 71.1938 9.47187C71.5945 9.81462 71.8804 10.2555 72.0514 10.7944C72.2253 11.3337 72.263 11.9407 72.1645 12.6153C72.0668 13.2844 71.8577 13.851 71.5372 14.3152C71.2196 14.7799 70.8198 15.1191 70.3378 15.333C69.8586 15.5472 69.3267 15.6117 68.7419 15.5263ZM68.8725 14.6323C69.3167 14.6972 69.6987 14.6367 70.0187 14.4509C70.3387 14.2651 70.5947 13.9967 70.7866 13.6458C70.9785 13.2948 71.1061 12.9029 71.1693 12.47C71.2326 12.0371 71.2226 11.6236 71.1395 11.2296C71.0563 10.8356 70.8882 10.5025 70.6352 10.2301C70.3821 9.95768 70.0335 9.78905 69.5893 9.72418C69.1452 9.65931 68.7629 9.7212 68.4425 9.90983C68.1221 10.0985 67.8658 10.3697 67.6734 10.7234C67.4811 11.0772 67.3533 11.4705 67.29 11.9034C67.2268 12.3363 67.237 12.7484 67.3205 13.1395C67.4041 13.5307 67.5726 13.8611 67.8261 14.1307C68.0795 14.4002 68.4284 14.5675 68.8725 14.6323Z" fill="white"/>
<path d="M80.8424 11.7814L81.7766 12.1538L79.1763 18.6774C79.0269 19.0521 78.8329 19.351 78.5942 19.5739C78.3581 19.7978 78.0808 19.9335 77.7622 19.9808C77.4463 20.0292 77.093 19.9756 76.7024 19.8199C76.6708 19.8073 76.6391 19.7946 76.6074 19.782C76.5758 19.7694 76.5441 19.7568 76.5124 19.7441L76.8596 18.8733C76.8912 18.8859 76.9203 18.8975 76.9466 18.908C76.973 18.9185 77.0021 18.9301 77.0337 18.9427C77.3187 19.0563 77.5609 19.055 77.7602 18.9387C77.9584 18.825 78.119 18.6138 78.2421 18.305L80.8424 11.7814ZM81.7055 10.9511C81.5234 10.8785 81.3911 10.7539 81.3086 10.5773C81.2287 10.4017 81.2235 10.2268 81.2929 10.0527C81.3623 9.87848 81.4864 9.75514 81.6652 9.68265C81.8465 9.61122 82.0283 9.61179 82.2104 9.68437C82.3925 9.75695 82.5235 9.88103 82.6033 10.0566C82.6858 10.2332 82.6924 10.4086 82.623 10.5828C82.5535 10.757 82.4281 10.8798 82.2467 10.9512C82.068 11.0237 81.8876 11.0237 81.7055 10.9511Z" fill="white"/>
<path d="M87.5221 22.8286C87.0025 22.4712 86.6331 22.0483 86.4139 21.5597C86.1988 21.0704 86.1318 20.5485 86.2131 19.9942C86.2983 19.4391 86.5309 18.8853 86.9108 18.3329C87.2907 17.7804 87.7262 17.3627 88.2172 17.0798C88.7122 16.7962 89.2225 16.6609 89.7479 16.674C90.2772 16.6864 90.7854 16.8599 91.2723 17.1948C91.5532 17.3879 91.7984 17.6255 92.0078 17.9075C92.2173 18.1895 92.362 18.5131 92.4418 18.8783C92.5233 19.2411 92.5124 19.6405 92.4092 20.0764C92.306 20.5122 92.0814 20.9818 91.7353 21.4851L91.4938 21.8362L87.3365 18.9773L87.8291 18.261L91.1437 20.5404C91.3529 20.2361 91.4788 19.9227 91.5213 19.6002C91.5661 19.2793 91.5248 18.9734 91.3974 18.6824C91.2723 18.3929 91.06 18.1452 90.7604 17.9392C90.4303 17.7122 90.0884 17.5977 89.7346 17.5958C89.3848 17.5931 89.0561 17.6774 88.7487 17.8487C88.4413 18.02 88.1853 18.2543 87.9809 18.5516L87.6525 19.0291C87.3724 19.4364 87.2052 19.83 87.1509 20.2098C87.1005 20.5889 87.151 20.9391 87.3024 21.2604C87.4554 21.5794 87.6993 21.854 88.034 22.0842C88.2517 22.2339 88.4693 22.3387 88.6867 22.3986C88.9081 22.4577 89.1258 22.4695 89.3398 22.434C89.5555 22.3961 89.7628 22.3077 89.9618 22.1687L90.6079 22.944C90.3369 23.1575 90.0311 23.2989 89.6904 23.3681C89.3514 23.4349 88.9962 23.4251 88.6247 23.3386C88.2548 23.2497 87.8873 23.0797 87.5221 22.8286Z" fill="white"/>
<path d="M95.9791 30.5371C95.5835 30.068 95.3536 29.5706 95.2894 29.045C95.2252 28.5194 95.3105 28.0015 95.5454 27.4912C95.7802 26.981 96.1474 26.5152 96.6469 26.0939C97.1551 25.6653 97.6823 25.3805 98.2285 25.2394C98.7788 25.0987 99.3055 25.1041 99.8087 25.2557C100.316 25.4077 100.76 25.7095 101.141 26.1612C101.438 26.513 101.64 26.885 101.748 27.2773C101.856 27.6695 101.868 28.0546 101.786 28.4327C101.703 28.8107 101.524 29.1533 101.248 29.4605L100.599 28.6917C100.778 28.4408 100.87 28.1402 100.876 27.7898C100.885 27.4399 100.747 27.0955 100.461 26.7567C100.209 26.457 99.9089 26.2602 99.562 26.1662C99.2192 26.0726 98.8535 26.0818 98.4649 26.194C98.0804 26.3064 97.6992 26.522 97.3213 26.8407C96.9348 27.1667 96.6495 27.5114 96.4654 27.8748C96.2831 28.2404 96.207 28.6018 96.2372 28.9592C96.2691 29.3188 96.4133 29.6506 96.6697 29.9546C96.8382 30.1544 97.0259 30.3064 97.2328 30.4107C97.4396 30.515 97.6558 30.5686 97.8814 30.5716C98.1069 30.5747 98.331 30.5232 98.5537 30.4171L99.2021 31.1859C98.8701 31.3915 98.5135 31.5084 98.132 31.5365C97.7546 31.5649 97.3783 31.4976 97.0031 31.3347C96.6318 31.1721 96.2905 30.9062 95.9791 30.5371Z" fill="white"/>
<path d="M108.262 37.5314L107.496 37.9061L106.005 34.8595L106.77 34.4848L108.262 37.5314ZM108.613 34.6833L109.056 35.5865L103.452 38.3294C103.197 38.4543 103.024 38.585 102.932 38.7215C102.845 38.8592 102.808 38.9974 102.822 39.136C102.84 39.2759 102.882 39.4122 102.947 39.5449C102.995 39.6444 103.04 39.7236 103.082 39.7823C103.126 39.8399 103.161 39.8859 103.187 39.9205L102.466 40.5014C102.413 40.4514 102.348 40.3771 102.271 40.2787C102.192 40.1814 102.111 40.0486 102.029 39.8802C101.904 39.625 101.836 39.3481 101.826 39.0495C101.817 38.7534 101.886 38.47 102.032 38.1993C102.179 37.9312 102.423 37.7134 102.765 37.5461L108.613 34.6833Z" fill="white"/>
<path d="M112.606 78.531L112.102 79.6876L104.276 79.5153L104.236 79.6091L109.694 85.2201L109.19 86.3766L101.189 82.8931L101.583 81.9866L107.663 84.6333L107.697 84.5552L102.706 79.4079L103.087 78.5327L110.255 78.6788L110.289 78.6006L104.209 75.9539L104.604 75.0475L112.606 78.531Z" fill="white"/>
<path d="M95.0323 87.4181C95.1451 87.2902 95.2563 87.1857 95.366 87.1043C95.4735 87.0211 95.5537 86.9688 95.6067 86.9474L96.1022 87.7255C95.8937 87.8674 95.7338 88.0143 95.6225 88.1661C95.5113 88.318 95.4642 88.4981 95.4812 88.7063C95.4942 88.9148 95.585 89.1749 95.7534 89.4864L96.0128 89.9653L102.548 92.5034L101.826 93.3214L96.7195 91.2254L96.6744 91.2765L99.3902 96.0822L98.6684 96.9002L94.8828 89.8548C94.712 89.5374 94.6046 89.2361 94.5606 88.9511C94.5145 88.6641 94.5317 88.3933 94.6124 88.1387C94.6913 87.8862 94.8312 87.646 95.0323 87.4181Z" fill="white"/>
<path d="M80.6911 98.8489L83.93 107.246L83.0235 107.596L82.6493 106.625L82.538 106.668C82.51 106.801 82.4667 106.973 82.4082 107.184C82.348 107.399 82.2277 107.616 82.0472 107.835C81.8651 108.058 81.5752 108.246 81.1776 108.399C80.6634 108.597 80.1606 108.644 79.6691 108.538C79.1777 108.432 78.7309 108.186 78.329 107.799C77.927 107.412 77.6023 106.898 77.3549 106.256C77.1054 105.609 76.9992 105.006 77.0362 104.447C77.0742 103.89 77.2379 103.407 77.5273 102.997C77.8178 102.59 78.2175 102.288 78.7264 102.091C79.1187 101.94 79.4578 101.884 79.7438 101.923C80.0308 101.964 80.2702 102.044 80.4618 102.162C80.6545 102.282 80.8067 102.385 80.9186 102.47L80.9981 102.439L79.7528 99.2108L80.6911 98.8489ZM81.8299 104.548C81.652 104.087 81.4274 103.706 81.1563 103.406C80.8861 103.108 80.5829 102.91 80.2464 102.811C79.911 102.715 79.5551 102.74 79.1787 102.885C78.7864 103.037 78.499 103.266 78.3163 103.574C78.132 103.886 78.0416 104.243 78.0451 104.647C78.0469 105.054 78.1316 105.475 78.2993 105.91C78.4649 106.339 78.6805 106.701 78.9459 106.994C79.2097 107.291 79.513 107.49 79.8557 107.589C80.1969 107.692 80.5662 107.666 80.9638 107.513C81.3455 107.366 81.6289 107.145 81.814 106.852C82.0002 106.561 82.093 106.217 82.0927 105.822C82.0933 105.429 82.0057 105.004 81.8299 104.548Z" fill="white"/>
<path d="M69.5036 104.705L70.2323 111.209L69.2667 111.318L69.1567 110.335L69.0889 110.343C69.0064 110.678 68.8211 110.963 68.533 111.198C68.2449 111.433 67.906 111.573 67.5164 111.617C67.443 111.625 67.3511 111.634 67.2407 111.643C67.1302 111.653 67.0465 111.658 66.9894 111.658L66.8755 110.642C66.9104 110.647 66.9894 110.651 67.1127 110.654C67.2335 110.661 67.3602 110.656 67.4929 110.642C67.8091 110.606 68.084 110.508 68.3176 110.348C68.5487 110.19 68.7233 109.988 68.8413 109.74C68.9568 109.496 68.9982 109.226 68.9653 108.933L68.5042 104.817L69.5036 104.705Z" fill="white"/>
<path d="M57.2865 104.621C57.8712 104.706 58.3639 104.92 58.7646 105.263C59.1625 105.605 59.4486 106.045 59.6229 106.581C59.7944 107.117 59.8313 107.72 59.7336 108.389C59.635 109.064 59.4267 109.635 59.1087 110.102C58.7878 110.569 58.3878 110.91 57.9086 111.124C57.4266 111.338 56.8933 111.402 56.3086 111.317C55.7239 111.231 55.2326 111.018 54.8347 110.675C54.434 110.332 54.1481 109.892 53.977 109.353C53.8031 108.813 53.7655 108.206 53.864 107.532C53.9617 106.863 54.1708 106.296 54.4913 105.832C54.8089 105.367 55.2087 105.028 55.6907 104.814C56.1699 104.6 56.7018 104.535 57.2865 104.621ZM57.156 105.515C56.7118 105.45 56.3297 105.51 56.0098 105.696C55.6898 105.882 55.4338 106.15 55.2419 106.501C55.0499 106.852 54.9224 107.244 54.8591 107.677C54.7959 108.11 54.8059 108.523 54.889 108.917C54.9721 109.311 55.1402 109.645 55.3933 109.917C55.6464 110.189 55.995 110.358 56.4391 110.423C56.8833 110.488 57.2656 110.426 57.586 110.237C57.9063 110.049 58.1627 109.777 58.3551 109.424C58.5474 109.07 58.6752 108.677 58.7384 108.244C58.8017 107.811 58.7915 107.399 58.7079 107.008C58.6244 106.616 58.4559 106.286 58.2024 106.016C57.9489 105.747 57.6001 105.58 57.156 105.515Z" fill="white"/>
<path d="M45.1861 108.366L44.2519 107.993L46.8522 101.47C47.0016 101.095 47.1956 100.796 47.4343 100.573C47.6704 100.349 47.9477 100.214 48.2663 100.166C48.5822 100.118 48.9355 100.172 49.326 100.327C49.3577 100.34 49.3894 100.352 49.421 100.365C49.4527 100.378 49.4844 100.39 49.516 100.403L49.1689 101.274C49.1373 101.261 49.1082 101.25 49.0818 101.239C49.0554 101.229 49.0264 101.217 48.9947 101.204C48.7097 101.091 48.4676 101.092 48.2683 101.208C48.0701 101.322 47.9095 101.533 47.7864 101.842L45.1861 108.366ZM44.323 109.196C44.5051 109.269 44.6374 109.393 44.7199 109.57C44.7998 109.745 44.805 109.92 44.7356 110.094C44.6661 110.269 44.5421 110.392 44.3633 110.464C44.1819 110.536 44.0002 110.535 43.8181 110.463C43.636 110.39 43.505 110.266 43.4251 110.09C43.3426 109.914 43.3361 109.738 43.4055 109.564C43.4749 109.39 43.6004 109.267 43.7817 109.196C43.9605 109.123 44.1409 109.123 44.323 109.196Z" fill="white"/>
<path d="M38.5064 97.3185C39.026 97.6759 39.3954 98.0988 39.6145 98.5874C39.8297 99.0767 39.8966 99.5986 39.8154 100.153C39.7301 100.708 39.4976 101.262 39.1177 101.814C38.7378 102.367 38.3023 102.784 37.8112 103.067C37.3162 103.351 36.806 103.486 36.2806 103.473C35.7512 103.461 35.2431 103.287 34.7562 102.952C34.4753 102.759 34.2301 102.522 34.0206 102.24C33.8111 101.958 33.6665 101.634 33.5866 101.269C33.5052 100.906 33.5161 100.507 33.6193 100.071C33.7225 99.6349 33.9471 99.1653 34.2932 98.662L34.5347 98.3109L38.692 101.17L38.1994 101.886L34.8848 99.6067C34.6755 99.911 34.5497 100.224 34.5072 100.547C34.4624 100.868 34.5037 101.174 34.6311 101.465C34.7561 101.754 34.9685 102.002 35.2681 102.208C35.5982 102.435 35.9401 102.549 36.2939 102.551C36.6437 102.554 36.9723 102.47 37.2798 102.298C37.5872 102.127 37.8431 101.893 38.0476 101.596L38.376 101.118C38.6561 100.711 38.8233 100.317 38.8776 99.9373C38.928 99.5582 38.8775 99.208 38.7261 98.8867C38.5731 98.5677 38.3292 98.2931 37.9945 98.0629C37.7768 97.9132 37.5592 97.8084 37.3418 97.7485C37.1204 97.6894 36.9027 97.6776 36.6886 97.7131C36.473 97.751 36.2656 97.8394 36.0666 97.9784L35.4206 97.2031C35.6916 96.9895 35.9974 96.8482 36.338 96.779C36.6771 96.7122 37.0323 96.722 37.4038 96.8085C37.7737 96.8974 38.1412 97.0674 38.5064 97.3185Z" fill="white"/>
<path d="M30.0493 89.61C30.445 90.0791 30.6749 90.5765 30.7391 91.1021C30.8033 91.6277 30.718 92.1456 30.4831 92.6559C30.2482 93.1661 29.8811 93.6319 29.3816 94.0532C28.8734 94.4817 28.3462 94.7666 27.8 94.9077C27.2497 95.0484 26.723 95.043 26.2197 94.8914C25.7125 94.7394 25.2684 94.4376 24.8874 93.9859C24.5907 93.6341 24.3885 93.2621 24.2807 92.8698C24.1729 92.4776 24.1602 92.0925 24.2427 91.7144C24.3253 91.3364 24.5046 90.9938 24.7806 90.6866L25.429 91.4554C25.2505 91.7063 25.1584 92.0069 25.1528 92.3573C25.1432 92.7072 25.2813 93.0516 25.567 93.3904C25.8198 93.6901 26.1196 93.8869 26.4664 93.9809C26.8093 94.0745 27.175 94.0653 27.5635 93.9531C27.9481 93.8407 28.3293 93.6251 28.7071 93.3064C29.0937 92.9803 29.379 92.6356 29.5631 92.2723C29.7454 91.9067 29.8214 91.5452 29.7913 91.1879C29.7594 90.8283 29.6152 90.4965 29.3588 90.1925C29.1903 89.9927 29.0026 89.8407 28.7957 89.7364C28.5889 89.6321 28.3727 89.5785 28.1471 89.5754C27.9216 89.5724 27.6974 89.6239 27.4747 89.73L26.8263 88.9612C27.1583 88.7556 27.515 88.6387 27.8964 88.6106C28.2738 88.5822 28.6502 88.6495 29.0254 88.8124C29.3967 88.975 29.738 89.2409 30.0493 89.61Z" fill="white"/>
<path d="M17.7669 82.6157L18.5323 82.241L20.0237 85.2876L19.2582 85.6623L17.7669 82.6157ZM17.4151 85.4638L16.9729 84.5606L22.5762 81.8177C22.8314 81.6928 23.0046 81.5621 23.096 81.4256C23.1836 81.2879 23.2203 81.1497 23.2062 81.0111C23.1883 80.8712 23.1469 80.7349 23.082 80.6022C23.0333 80.5027 22.9882 80.4235 22.9468 80.3647C22.9028 80.3072 22.8676 80.2612 22.8412 80.2266L23.5627 79.6457C23.6156 79.6957 23.6804 79.77 23.7571 79.8684C23.8363 79.9657 23.9171 80.0985 23.9996 80.2669C24.1245 80.5221 24.192 80.799 24.2022 81.0976C24.2112 81.3937 24.1427 81.6771 23.9969 81.9478C23.8498 82.2159 23.6052 82.4337 23.2633 82.601L17.4151 85.4638Z" fill="white"/>
<circle cx="14.5" cy="57.5" r="2.5" fill="white"/>
<circle cx="14.5" cy="57.5" r="2.5" fill="white"/>
<circle cx="14.5" cy="57.5" r="2.5" fill="white"/>
<circle cx="109.5" cy="57.5" r="2.5" fill="white"/>
<circle cx="109.5" cy="57.5" r="2.5" fill="white"/>
<circle cx="109.5" cy="57.5" r="2.5" fill="white"/>
</svg>
