<svg width="26" height="25" viewBox="0 0 26 25" fill="none" xmlns="http://www.w3.org/2000/svg">
<path d="M24.0703 0.996071C23.7344 1.0117 23.418 1.10935 23.1367 1.21873H23.1328C22.8477 1.33201 21.4922 1.90232 19.4336 2.7656C17.375 3.63279 14.7031 4.75779 12.0508 5.87498C6.75392 8.10545 1.54689 10.3008 1.54689 10.3008L1.60939 10.2773C1.60939 10.2773 1.25002 10.3945 0.875016 10.6523C0.68361 10.7773 0.472672 10.9492 0.289079 11.2187C0.105485 11.4883 -0.0429527 11.9023 0.0117353 12.3281C0.101579 13.0508 0.570329 13.4844 0.906266 13.7226C1.24611 13.9648 1.57033 14.0781 1.57033 14.0781H1.57814L6.46095 15.7226C6.6797 16.4258 7.94924 20.5976 8.25392 21.5586C8.43361 22.1328 8.60939 22.4922 8.82814 22.7656C8.93361 22.9062 9.05861 23.0234 9.20705 23.1172C9.26564 23.1523 9.32814 23.1797 9.39064 23.2031C9.41017 23.2148 9.4297 23.2187 9.45314 23.2226L9.40236 23.2109C9.41798 23.2148 9.4297 23.2265 9.44142 23.2304C9.48049 23.2422 9.50783 23.2461 9.55861 23.2539C10.332 23.4883 10.9531 23.0078 10.9531 23.0078L10.9883 22.9804L13.8711 20.3554L18.7031 24.0625L18.8125 24.1094C19.8203 24.5508 20.8399 24.3047 21.3789 23.8711C21.9219 23.4336 22.1328 22.875 22.1328 22.875L22.168 22.7851L25.9024 3.65623C26.0078 3.18357 26.0352 2.74217 25.918 2.31248C25.8008 1.88279 25.5 1.48045 25.1367 1.2656C24.7695 1.04685 24.4063 0.980446 24.0703 0.996071ZM23.9688 3.04685C23.9649 3.10935 23.9766 3.10154 23.9492 3.22263V3.23435L20.25 22.164C20.2344 22.1914 20.207 22.25 20.1328 22.3086C20.0547 22.3711 19.9922 22.4101 19.668 22.2812L13.7578 17.75L10.1875 21.0039L10.9375 16.2148C10.9375 16.2148 20.1953 7.58591 20.5938 7.21482C20.9922 6.84373 20.8594 6.7656 20.8594 6.7656C20.8867 6.31248 20.2578 6.63279 20.2578 6.63279L8.08205 14.1758L8.07814 14.1562L2.2422 12.1914V12.1875C2.2383 12.1875 2.23049 12.1836 2.22658 12.1836C2.23049 12.1836 2.25783 12.1719 2.25783 12.1719L2.28908 12.1562L2.32033 12.1445C2.32033 12.1445 7.53127 9.9492 12.8281 7.71873C15.4805 6.60154 18.1524 5.47654 20.207 4.60935C22.2617 3.74607 23.7813 3.11326 23.8672 3.0781C23.9492 3.04685 23.9102 3.04685 23.9688 3.04685Z" fill="white"/>
</svg>
