<svg width="20" height="17" viewBox="0 0 20 17" fill="none" xmlns="http://www.w3.org/2000/svg">
<path d="M2 17C1.45 17 0.979001 16.7918 0.587001 16.3753C0.195002 15.9588 -0.000664969 15.4587 1.69779e-06 14.875V2.125C1.69779e-06 1.54063 0.196002 1.04019 0.588002 0.623689C0.980002 0.207189 1.45067 -0.000706529 2 1.80391e-06H18C18.55 1.80391e-06 19.021 0.208252 19.413 0.624752C19.805 1.04125 20.0007 1.54133 20 2.125V14.875C20 15.4594 19.804 15.9598 19.412 16.3763C19.02 16.7928 18.5493 17.0007 18 17H2ZM18 4.25L10.525 9.21719C10.4417 9.27031 10.354 9.31034 10.262 9.33725C10.17 9.36417 10.0827 9.37727 10 9.37656C9.91667 9.37656 9.829 9.36346 9.737 9.33725C9.645 9.31104 9.55767 9.27102 9.475 9.21719L2 4.25V14.875H18V4.25ZM10 7.4375L18 2.125H2L10 7.4375ZM2 4.51563V2.94844V2.975V2.96225V4.51563Z" fill="white"/>
</svg>
