<svg width="21" height="21" viewBox="0 0 21 21" fill="none" xmlns="http://www.w3.org/2000/svg">
<path d="M11.2812 0.9375L9.625 1C4.28125 1.19141 0 5.57812 0 10.9688C0 16.4805 4.48828 20.9688 10 20.9688C15.3906 20.9688 19.7773 16.6875 19.9688 11.3438L20.0312 9.71875L18.5625 10.4062C17.7812 10.7773 16.9141 10.9688 16 10.9688C12.6758 10.9688 10 8.29297 10 4.96875C10 4.05469 10.2227 3.21875 10.5938 2.4375L11.2812 0.9375ZM8.375 3.3125C8.25 3.86719 8 4.375 8 4.96875C8 9.375 11.5938 12.9688 16 12.9688C16.6055 12.9688 17.1211 12.7227 17.6875 12.5938C16.9258 16.2188 13.8594 18.9688 10 18.9688C5.57031 18.9688 2 15.3984 2 10.9688C2 7.11719 4.75781 4.08203 8.375 3.3125Z" fill="white"/>
</svg>
