<svg width="19" height="19" viewBox="0 0 19 19" fill="none" xmlns="http://www.w3.org/2000/svg">
<path d="M18.9889 14.3525C18.8195 15.6398 18.1873 16.8214 17.2104 17.6767C16.2335 18.5319 14.9786 19.0023 13.6802 19C6.13711 19 8.59636e-06 12.8629 8.59636e-06 5.31986C-0.00231892 4.02147 0.468069 2.76664 1.32332 1.78972C2.17857 0.812796 3.36019 0.180601 4.64749 0.0112079C4.97301 -0.0285396 5.30267 0.0380569 5.58723 0.201056C5.8718 0.364056 6.09602 0.614715 6.22642 0.915616L8.23285 5.39491V5.40631C8.33268 5.63664 8.37392 5.88812 8.35286 6.13827C8.33181 6.38842 8.24913 6.62947 8.1122 6.83987C8.0951 6.86552 8.07705 6.88927 8.05805 6.91302L6.08011 9.25765C6.79168 10.7036 8.3041 12.2027 9.76903 12.9161L12.0814 10.9487C12.1041 10.9296 12.1279 10.9118 12.1526 10.8955C12.3628 10.7552 12.6047 10.6697 12.8564 10.6464C13.108 10.6232 13.3614 10.6631 13.5938 10.7625L13.6061 10.7682L18.0817 12.7736C18.3831 12.9036 18.6344 13.1276 18.7979 13.4122C18.9615 13.6968 19.0285 14.0267 18.9889 14.3525Z" fill="white"/>
</svg>
