<svg width="31" height="31" viewBox="0 0 31 31" fill="none" xmlns="http://www.w3.org/2000/svg">
<path d="M11.8541 11.5989V19.401C11.8541 19.9843 12.1093 20.4097 12.6198 20.677C13.1302 20.9444 13.6284 20.9201 14.1145 20.6041L20.1666 16.7395C20.6284 16.4722 20.8593 16.059 20.8593 15.5C20.8593 14.9409 20.6284 14.5277 20.1666 14.2604L14.1145 10.3958C13.6284 10.0798 13.1302 10.0555 12.6198 10.3229C12.1093 10.5902 11.8541 11.0156 11.8541 11.5989ZM15.5 30.0833C13.4826 30.0833 11.5868 29.7002 9.81246 28.9341C8.03816 28.168 6.49475 27.1292 5.18225 25.8177C3.86975 24.5052 2.83093 22.9618 2.06579 21.1875C1.30065 19.4132 0.917598 17.5173 0.916626 15.5C0.916626 13.4826 1.29968 11.5868 2.06579 9.81246C2.8319 8.03816 3.87072 6.49475 5.18225 5.18225C6.49475 3.86975 8.03816 2.83093 9.81246 2.06579C11.5868 1.30065 13.4826 0.917598 15.5 0.916626C17.5173 0.916626 19.4132 1.29968 21.1875 2.06579C22.9618 2.8319 24.5052 3.87072 25.8177 5.18225C27.1302 6.49475 28.1695 8.03816 28.9356 9.81246C29.7017 11.5868 30.0843 13.4826 30.0833 15.5C30.0833 17.5173 29.7002 19.4132 28.9341 21.1875C28.168 22.9618 27.1292 24.5052 25.8177 25.8177C24.5052 27.1302 22.9618 28.1695 21.1875 28.9356C19.4132 29.7017 17.5173 30.0843 15.5 30.0833ZM15.5 27.1666C18.7326 27.1666 21.4854 26.0306 23.7585 23.7585C26.0316 21.4864 27.1676 18.7336 27.1666 15.5C27.1666 12.2673 26.0306 9.51447 23.7585 7.24142C21.4864 4.96836 18.7336 3.83232 15.5 3.83329C12.2673 3.83329 9.51447 4.96933 7.24142 7.24142C4.96836 9.5135 3.83232 12.2663 3.83329 15.5C3.83329 18.7326 4.96933 21.4854 7.24142 23.7585C9.5135 26.0316 12.2663 27.1676 15.5 27.1666Z" fill="white"/>
</svg>
