<svg width="26" height="26" viewBox="0 0 26 26" fill="none" xmlns="http://www.w3.org/2000/svg">
<path d="M12 0V5H14V0H12ZM4.5 3.09375L3.09375 4.5L6.625 8.0625L8.0625 6.625L4.5 3.09375ZM21.5 3.09375L17.9375 6.625L19.375 8.0625L22.9062 4.5L21.5 3.09375ZM13 6C9.14453 6 6 9.14453 6 13C6 16.8555 9.14453 20 13 20C16.8555 20 20 16.8555 20 13C20 9.14453 16.8555 6 13 6ZM13 8C15.7734 8 18 10.2266 18 13C18 15.7734 15.7734 18 13 18C10.2266 18 8 15.7734 8 13C8 10.2266 10.2266 8 13 8ZM0 12V14H5V12H0ZM21 12V14H26V12H21ZM6.625 17.9375L3.09375 21.5L4.5 22.9062L8.0625 19.375L6.625 17.9375ZM19.375 17.9375L17.9375 19.375L21.5 22.9062L22.9062 21.5L19.375 17.9375ZM12 21V26H14V21H12Z" fill="white"/>
</svg>
