<?xml version="1.0" encoding="utf-8"?><svg viewBox="0 0 127 120" xmlns="http://www.w3.org/2000/svg" xmlns:xlink="http://www.w3.org/1999/xlink"><style>:root>svg{display:none}:root>svg:target{display:block}</style><svg viewBox="0 0 32 32" id="about" xmlns="http://www.w3.org/2000/svg"><path d="M16 5c-3.855 0-7 3.145-7 7 0 2.41 1.23 4.55 3.094 5.813C8.527 19.343 6 22.883 6 27h2c0-4.43 3.57-8 8-8s8 3.57 8 8h2c0-4.117-2.527-7.656-6.094-9.188A7.024 7.024 0 0023 12c0-3.855-3.145-7-7-7zm0 2c2.773 0 5 2.227 5 5s-2.227 5-5 5-5-2.227-5-5 2.227-5 5-5z"/></svg><svg viewBox="0 0 32 32" id="angle-left" xmlns="http://www.w3.org/2000/svg"><path d="M19.031 4.281l-11 11-.687.719.687.719 11 11 1.438-1.438L10.187 16 20.47 5.719 19.03 4.28z"/></svg><svg viewBox="0 0 32 32" id="angle-right" xmlns="http://www.w3.org/2000/svg"><path d="M12.969 4.281L11.53 5.72 21.812 16l-10.28 10.281 1.437 1.438 11-11 .687-.719-.687-.719-11-11z"/></svg><svg viewBox="0 0 32 32" id="contact-mail" xmlns="http://www.w3.org/2000/svg"><path d="M3 8v18h26V8zm4.313 2h17.375L16 15.781zM5 10.875l10.438 6.969.562.343.563-.343L27 10.875V24H5z"/></svg><svg viewBox="0 0 64 64" id="down-arrow" xmlns="http://www.w3.org/2000/svg"><path d="M64 32l-5.64-5.64L36 48.68V0h-8v48.68L5.68 26.32 0 32l32 32 32-32z"/></svg><svg viewBox="0 0 24 24" id="facebook" xmlns="http://www.w3.org/2000/svg"><path d="M12 0C5.384 0 0 5.384 0 12s5.384 12 12 12 12-5.384 12-12S18.616 0 12 0zm0 2c5.535 0 10 4.465 10 10a9.976 9.976 0 01-8.512 9.879v-6.963h2.848l.447-2.893h-3.295v-1.58c0-1.2.395-2.267 1.518-2.267h1.805V5.652c-.317-.043-.988-.136-2.256-.136-2.648 0-4.2 1.398-4.2 4.584v1.923H7.633v2.893h2.722v6.938A9.975 9.975 0 012 12C2 6.465 6.465 2 12 2z"/></svg><svg viewBox="0 0 24 24" id="github" xmlns="http://www.w3.org/2000/svg"><path clip-rule="evenodd" d="M12 0C5.371 0 0 5.371 0 12c0 5.3 3.438 9.8 8.207 11.387.602.11.82-.258.82-.578 0-.286-.011-1.04-.015-2.04-3.34.723-4.043-1.609-4.043-1.609-.547-1.387-1.332-1.758-1.332-1.758-1.09-.742.082-.726.082-.726 1.203.086 1.836 1.234 1.836 1.234 1.07 1.836 2.808 1.305 3.492 1 .11-.777.422-1.305.762-1.605-2.664-.301-5.465-1.332-5.465-5.93 0-1.313.468-2.383 1.234-3.223-.121-.3-.535-1.523.117-3.175 0 0 1.008-.32 3.301 1.23A11.487 11.487 0 0112 5.805c1.02.004 2.047.136 3.004.402 2.293-1.55 3.297-1.23 3.297-1.23.656 1.652.246 2.875.12 3.175.77.84 1.231 1.91 1.231 3.223 0 4.61-2.804 5.621-5.476 5.922.43.367.812 1.101.812 2.219 0 1.605-.011 2.898-.011 3.293 0 .32.214.695.824.578C20.566 21.797 24 17.3 24 12c0-6.629-5.371-12-12-12z"/></svg><svg viewBox="0 0 28 26" id="home" xmlns="http://www.w3.org/2000/svg"><path d="M14 .594l-.719.687-13 13L1.72 15.72 3 14.438V26h9V16h4v10h9V14.437l1.281 1.282 1.438-1.438-13-13L14 .594zm0 2.844l9 9V24h-5V14h-8v10H5V12.437l9-9z"/></svg><svg viewBox="0 0 21 21" id="moon" xmlns="http://www.w3.org/2000/svg"><path d="M11.281.938L9.625 1C4.281 1.191 0 5.578 0 10.969c0 5.511 4.488 10 10 10 5.39 0 9.777-4.282 9.969-9.625l.062-1.625-1.468.687A5.94 5.94 0 0116 10.97c-3.324 0-6-2.676-6-6 0-.914.223-1.75.594-2.532l.687-1.5zM8.375 3.313C8.25 3.867 8 4.375 8 4.968c0 4.406 3.594 8 8 8 .605 0 1.121-.246 1.688-.375-.762 3.625-3.829 6.375-7.688 6.375-4.43 0-8-3.57-8-8 0-3.852 2.758-6.887 6.375-7.656z"/></svg><svg viewBox="0 0 32 32" id="portfolio" xmlns="http://www.w3.org/2000/svg"><path d="M5 5v22h22V5zm2 2h8v8H7zm10 0h8v8h-8zm-6 2l-3 4h6zm8 0v4h4V9zM7 17h8v8H7zm10 0h8v8h-8zm4 1l-2 3 2 3 2-3zm-10 1a1.999 1.999 0 100 4 1.999 1.999 0 100-4z"/></svg><svg viewBox="0 0 127 120" id="project-circle" xmlns="http://www.w3.org/2000/svg"><path d="M13.422 41.616l.504-1.157 7.826.173.04-.094-5.457-5.611.503-1.157 8.002 3.484-.395.907-6.08-2.647-.033.078 4.99 5.147-.38.875-7.168-.146-.034.078 6.079 2.647-.395.907-8.002-3.484zm17.574-8.887a2.19 2.19 0 01-.333.314 1.198 1.198 0 01-.241.157l-.496-.778c.209-.142.369-.29.48-.441a.776.776 0 00.141-.54c-.013-.209-.104-.469-.272-.78l-.26-.48-6.534-2.537.721-.818 5.107 2.096.045-.051-2.716-4.806.722-.818 3.786 7.045c.17.318.278.619.322.904a1.74 1.74 0 01-.052.812 1.982 1.982 0 01-.42.721zm14.341-11.431l-3.239-8.397.907-.35.374.97.111-.042c.029-.133.072-.305.13-.516.06-.215.18-.432.361-.651.182-.223.472-.41.87-.564a2.606 2.606 0 011.508-.139c.492.106.938.352 1.34.74.403.386.727.9.975 1.542.25.647.355 1.25.318 1.81-.038.556-.201 1.04-.49 1.45-.291.407-.691.708-1.2.905-.392.151-.731.207-1.017.168a1.87 1.87 0 01-.718-.239 6.478 6.478 0 01-.457-.308l-.08.03 1.246 3.23-.939.361zm-1.138-5.7c.178.462.402.843.673 1.143.27.298.574.496.91.595.336.096.691.071 1.068-.074.392-.151.68-.381.862-.689.184-.312.275-.67.271-1.073a3.546 3.546 0 00-.254-1.263 3.446 3.446 0 00-.646-1.084 1.922 1.922 0 00-.91-.595c-.341-.103-.71-.077-1.108.076-.382.147-.665.368-.85.661a1.867 1.867 0 00-.28 1.03c0 .394.088.818.264 1.274zm12.326-.155l-.729-6.505.966-.108.11.982.068-.008c.082-.335.267-.62.556-.855a1.907 1.907 0 011.016-.418 7.046 7.046 0 01.527-.042l.114 1.016a2.978 2.978 0 00-.237-.012 2.308 2.308 0 00-.38.013 1.78 1.78 0 00-.825.294 1.47 1.47 0 00-.648 1.415l.461 4.116-1 .112zm12.217.083c-.585-.085-1.078-.3-1.478-.642a2.866 2.866 0 01-.858-1.318c-.172-.536-.209-1.139-.111-1.808.099-.675.307-1.246.625-1.713a2.86 2.86 0 011.2-1.022c.482-.214 1.015-.278 1.6-.193.585.086 1.076.3 1.474.642.4.343.686.784.857 1.322.174.54.212 1.147.114 1.821-.098.67-.307 1.236-.628 1.7a2.827 2.827 0 01-1.2 1.018c-.478.214-1.01.279-1.595.193zm.13-.894c.445.065.827.005 1.147-.181.32-.186.576-.454.768-.805.191-.351.32-.743.382-1.176a3.51 3.51 0 00-.03-1.24 2.062 2.062 0 00-.504-1c-.253-.272-.602-.441-1.046-.506-.444-.065-.826-.003-1.147.186-.32.188-.576.46-.769.813-.192.354-.32.747-.383 1.18-.063.433-.053.845.03 1.236.084.392.253.722.506.992.254.27.602.437 1.047.501zm11.97-2.851l.935.373-2.6 6.523c-.15.375-.344.674-.583.897a1.5 1.5 0 01-.832.407c-.316.048-.669-.005-1.06-.161l-.095-.038-.095-.038.348-.87.087.034.087.035c.285.113.527.112.726-.004.198-.114.359-.325.482-.634l2.6-6.524zm.864-.83a.715.715 0 01-.397-.374.643.643 0 01-.016-.524.643.643 0 01.372-.37.715.715 0 01.545.001.7.7 0 01.393.373c.083.176.09.352.02.526a.638.638 0 01-.376.368.7.7 0 01-.541 0zm5.816 11.878c-.52-.358-.889-.78-1.108-1.27a2.803 2.803 0 01-.2-1.565c.084-.555.317-1.109.697-1.661.38-.553.815-.97 1.306-1.253a2.891 2.891 0 011.53-.406c.53.012 1.038.186 1.525.52.281.194.526.431.736.713a2.5 2.5 0 01.434.971c.081.363.07.762-.033 1.198-.103.436-.328.906-.674 1.41l-.241.35-4.157-2.859.492-.716 3.315 2.28c.209-.305.335-.618.377-.94a1.67 1.67 0 00-.124-.919 1.742 1.742 0 00-.637-.743 1.805 1.805 0 00-1.025-.343 1.962 1.962 0 00-.986.253 2.253 2.253 0 00-.768.703l-.328.477c-.28.407-.448.801-.502 1.18-.05.38 0 .73.151 1.051.153.32.397.594.732.824.218.15.435.255.653.315.221.059.439.07.653.035.215-.038.423-.126.622-.265l.646.775a2.155 2.155 0 01-.918.424 2.514 2.514 0 01-1.065-.03 3.32 3.32 0 01-1.103-.51zm8.458 7.708c-.397-.469-.626-.966-.69-1.492a2.833 2.833 0 01.255-1.554c.235-.51.602-.976 1.102-1.397.508-.429 1.035-.713 1.581-.855a2.897 2.897 0 011.58.017c.508.152.952.453 1.333.905.297.352.499.724.607 1.116.108.392.12.778.038 1.156-.083.378-.262.72-.538 1.027l-.649-.768a1.56 1.56 0 00.277-.902c.009-.35-.129-.694-.415-1.033a1.762 1.762 0 00-.899-.59 1.999 1.999 0 00-1.097.027c-.385.112-.766.328-1.144.647-.386.326-.671.67-.856 1.034a2.02 2.02 0 00-.228 1.084c.032.36.176.692.433.996.168.2.356.351.563.456a1.467 1.467 0 001.32.006l.65.769a2.33 2.33 0 01-1.071.35 2.358 2.358 0 01-1.129-.201c-.371-.163-.713-.429-1.024-.798zm12.282 6.994l-.766.375-1.491-3.047.765-.374 1.492 3.046zm.351-2.848l.443.904-5.604 2.742c-.255.125-.428.256-.52.392a.644.644 0 00-.11.415c.018.14.06.276.125.409a1.647 1.647 0 00.24.375l-.721.581a2.078 2.078 0 01-.195-.222 2.095 2.095 0 01-.242-.399 2.02 2.02 0 01-.203-.83c-.009-.297.06-.58.206-.85.147-.269.391-.487.733-.654l5.848-2.863zm3.993 43.848l-.504 1.157-7.826-.173-.04.094 5.458 5.611-.504 1.157-8.001-3.484.394-.906 6.08 2.646.034-.078-4.991-5.147.381-.875 7.168.146.034-.078-6.08-2.647.395-.906 8.002 3.483zm-17.574 8.887a2.202 2.202 0 01.575-.47l.495.778a1.94 1.94 0 00-.48.44.777.777 0 00-.14.54c.012.209.103.469.271.78l.26.48 6.535 2.537-.722.818-5.106-2.096-.046.052 2.716 4.805-.722.818-3.785-7.045a2.838 2.838 0 01-.322-.904 1.74 1.74 0 01.051-.812c.08-.253.22-.493.42-.72zM80.691 98.849l3.239 8.397-.907.35-.374-.971-.111.043a8.824 8.824 0 01-.13.516c-.06.215-.18.432-.36.651-.183.223-.473.411-.87.564-.515.198-1.017.245-1.509.139-.491-.106-.938-.352-1.34-.739-.402-.387-.727-.901-.974-1.543-.25-.647-.356-1.25-.319-1.809.038-.557.202-1.04.491-1.45.29-.407.69-.709 1.2-.906.392-.151.73-.207 1.017-.168.287.041.526.121.718.239.192.12.345.223.457.308l.08-.031-1.246-3.228.938-.362zm1.139 5.699a3.636 3.636 0 00-.674-1.142 1.978 1.978 0 00-.91-.595c-.335-.096-.69-.071-1.067.074-.393.152-.68.381-.863.689a2.032 2.032 0 00-.27 1.073c0 .407.086.828.253 1.263.166.429.381.791.647 1.084.264.297.567.496.91.595.34.103.71.077 1.108-.076.382-.147.665-.368.85-.661.186-.291.279-.635.279-1.03 0-.393-.087-.818-.263-1.274zm-12.326.157l.728 6.504-.965.109-.11-.983-.068.008a1.57 1.57 0 01-.556.855 1.912 1.912 0 01-1.017.419 10.212 10.212 0 01-.527.041l-.114-1.016c.035.005.114.009.238.012.12.007.247.002.38-.012.316-.036.591-.134.825-.294a1.47 1.47 0 00.648-1.415l-.462-4.116 1-.112zm-12.218-.084c.585.085 1.078.299 1.479.642.398.342.684.782.858 1.318.171.536.208 1.139.11 1.808-.098.675-.306 1.246-.624 1.713a2.86 2.86 0 01-1.2 1.022c-.482.214-1.016.278-1.6.193-.585-.086-1.076-.299-1.474-.642a2.821 2.821 0 01-.858-1.322c-.174-.54-.211-1.147-.113-1.821.098-.669.307-1.236.627-1.7a2.826 2.826 0 011.2-1.018c.479-.214 1.01-.279 1.595-.193zm-.13.894c-.444-.065-.826-.005-1.146.181-.32.186-.576.454-.768.805a3.47 3.47 0 00-.383 1.176 3.51 3.51 0 00.03 1.24c.083.394.251.728.504 1s.602.441 1.046.506c.444.065.827.003 1.147-.186.32-.188.577-.46.77-.813.191-.354.32-.747.382-1.18a3.471 3.471 0 00-.03-1.236 2.035 2.035 0 00-.506-.992c-.253-.269-.602-.436-1.046-.501zm-11.97 2.851l-.934-.373 2.6-6.523c.15-.375.344-.674.582-.897a1.51 1.51 0 01.832-.407c.316-.048.67.006 1.06.161l.095.038.095.038-.347.871-.087-.035-.087-.035c-.285-.113-.527-.112-.727.004-.198.114-.358.325-.482.634l-2.6 6.524zm-.863.83a.715.715 0 01.397.374c.08.175.085.35.016.524a.64.64 0 01-.373.37.715.715 0 01-.545-.001.702.702 0 01-.393-.373.637.637 0 01-.02-.526.636.636 0 01.377-.368.696.696 0 01.541 0zm-5.817-11.877c.52.357.89.78 1.108 1.268.216.49.283 1.012.201 1.566-.085.555-.317 1.109-.697 1.661-.38.553-.816.97-1.307 1.253a2.889 2.889 0 01-1.53.406c-.53-.012-1.038-.186-1.525-.521a3.096 3.096 0 01-.735-.712 2.506 2.506 0 01-.434-.971c-.082-.363-.07-.762.032-1.198.103-.436.328-.906.674-1.409l.242-.351 4.157 2.859-.493.716-3.314-2.28c-.21.305-.335.618-.378.941a1.67 1.67 0 00.124.918c.125.289.337.537.637.743.33.227.672.341 1.026.343.35.003.678-.081.986-.253a2.26 2.26 0 00.768-.702l.328-.478c.28-.407.447-.801.502-1.18.05-.38 0-.73-.152-1.051a2.11 2.11 0 00-.731-.824 2.178 2.178 0 00-.653-.314 1.528 1.528 0 00-.653-.036 1.55 1.55 0 00-.622.265l-.646-.775a2.15 2.15 0 01.917-.424c.34-.067.694-.057 1.066.03.37.088.737.258 1.102.51zM30.05 89.61c.395.47.625.966.69 1.492a2.833 2.833 0 01-.257 1.554c-.235.51-.602.976-1.101 1.397-.509.429-1.036.714-1.582.855-.55.14-1.077.135-1.58-.017-.508-.152-.952-.453-1.333-.905a2.935 2.935 0 01-.606-1.116 2.383 2.383 0 01-.038-1.156c.082-.378.262-.72.538-1.027l.648.768a1.56 1.56 0 00-.276.902c-.01.35.128.695.414 1.033.253.3.553.497.9.59.342.094.708.085 1.097-.027.384-.112.765-.328 1.143-.647.387-.326.672-.67.856-1.034.182-.365.258-.727.228-1.084a1.763 1.763 0 00-.432-.996 1.796 1.796 0 00-.563-.456 1.468 1.468 0 00-.649-.16 1.503 1.503 0 00-.672.154l-.649-.769a2.33 2.33 0 011.07-.35c.378-.029.754.038 1.13.201.37.163.712.429 1.023.798zm-12.283-6.994l.765-.375 1.492 3.047-.766.374-1.491-3.046zm-.352 2.848l-.442-.903 5.603-2.743c.255-.125.429-.256.52-.392a.64.64 0 00.11-.415 1.302 1.302 0 00-.124-.409 1.787 1.787 0 00-.135-.237l-.106-.138.722-.581c.053.05.117.124.194.222.08.098.16.23.243.399.125.255.192.532.202.83.01.297-.06.58-.205.85-.147.269-.392.487-.734.654l-5.848 2.863z"/><circle cx="14.5" cy="57.5" r="2.5"/><circle cx="14.5" cy="57.5" r="2.5"/><circle cx="14.5" cy="57.5" r="2.5"/><circle cx="109.5" cy="57.5" r="2.5"/><circle cx="109.5" cy="57.5" r="2.5"/><circle cx="109.5" cy="57.5" r="2.5"/></svg><svg viewBox="0 0 32 32" id="resume" xmlns="http://www.w3.org/2000/svg"><path d="M16 3c-1.863 0-3.398 1.277-3.844 3H3v20h26V6h-9.156c-.446-1.723-1.98-3-3.844-3zm0 2c.809 0 1.43.387 1.75 1h-3.5c.32-.613.941-1 1.75-1zM5 8h22v9H5zm11 6c-.55 0-1 .45-1 1s.45 1 1 1 1-.45 1-1-.45-1-1-1zM5 19h22v5H5z"/></svg><svg viewBox="0 0 32 32" id="services" xmlns="http://www.w3.org/2000/svg"><path d="M5 5v6h19V5H5zm2 2h15v2H7V7zm2 6v6h19v-6H9zm2 2h15v2H11v-2zm-6 6v6h19v-6H5zm2 2h15v2H7v-2z"/></svg><svg viewBox="0 0 26 26" id="sun" xmlns="http://www.w3.org/2000/svg"><path d="M12 0v5h2V0h-2zM4.5 3.094L3.094 4.5l3.531 3.563 1.438-1.438L4.5 3.094zm17 0l-3.563 3.531 1.438 1.438L22.906 4.5 21.5 3.094zM13 6c-3.855 0-7 3.145-7 7s3.145 7 7 7 7-3.145 7-7-3.145-7-7-7zm0 2c2.773 0 5 2.227 5 5s-2.227 5-5 5-5-2.227-5-5 2.227-5 5-5zM0 12v2h5v-2H0zm21 0v2h5v-2h-5zM6.625 17.938L3.094 21.5 4.5 22.906l3.563-3.531-1.438-1.438zm12.75 0l-1.438 1.437 3.563 3.531 1.406-1.406-3.531-3.563zM12 21v5h2v-5h-2z"/></svg><svg viewBox="0 0 26 25" id="telegram" xmlns="http://www.w3.org/2000/svg"><path d="M24.07.996a2.974 2.974 0 00-.933.223h-.004c-.285.113-1.64.683-3.7 1.547l-7.382 3.109c-5.297 2.23-10.504 4.426-10.504 4.426l.062-.024s-.359.118-.734.375a2.03 2.03 0 00-.586.567c-.184.27-.332.683-.277 1.11.09.722.558 1.155.894 1.394.34.242.664.355.664.355h.008l4.883 1.645c.219.703 1.488 4.875 1.793 5.836.18.574.355.933.574 1.207.106.14.23.257.38.351a1.12 1.12 0 00.245.106l-.05-.012c.015.004.027.016.038.02.04.011.067.015.118.023.773.234 1.394-.246 1.394-.246l.035-.028 2.883-2.625 4.832 3.707.11.047c1.007.442 2.027.196 2.566-.238.543-.437.754-.996.754-.996l.035-.09 3.734-19.129c.106-.472.133-.914.016-1.344a1.807 1.807 0 00-.781-1.046 1.871 1.871 0 00-1.067-.27zm-.101 2.05c-.004.063.008.056-.02.177v.011l-3.699 18.93c-.016.027-.043.086-.117.145-.078.062-.14.101-.465-.028l-5.91-4.531-3.57 3.254.75-4.79 9.656-9c.398-.37.265-.448.265-.448.028-.454-.601-.133-.601-.133L8.082 14.176l-.004-.02-5.836-1.965v-.004l-.015-.003c.003 0 .03-.012.03-.012l.032-.016.031-.011s5.211-2.196 10.508-4.426c2.652-1.117 5.324-2.242 7.379-3.11a807.312 807.312 0 013.66-1.53c.082-.032.043-.032.102-.032z"/></svg><svg viewBox="0 0 32 32" id="testimonials" xmlns="http://www.w3.org/2000/svg"><path d="M3 6v20h9.586L16 29.414 19.414 26H29V6zm2 2h22v16h-8.414L16 26.586 13.414 24H5zm4 3v2h14v-2zm0 4v2h14v-2zm0 4v2h10v-2z"/></svg></svg>